# xmcd
#
# Track frame offsets:
#	150
#	16233
#	35806
#	50876
#	75890
#	94900
#	107109
#
# Disc length: 1657 seconds
# Revision: 0
# Processed by: cddbd v1.5.2PL0 Copyright (c) Steve Scherf et al.
# Submitted via: dBpowerAMP V12.0
#
DISCID=52067707
DTITLE=Spectrum - BreathingSpaceToo
DYEAR=2009
DGENRE=
TTITLE0=Xavier Rudd Is Not My Son
TTITLE1=Hotels Motels
TTITLE2=Hot Hot Day
TTITLE3=Silicon Valley
TTITLE4=Sensible Shoes
TTITLE5=Gee Whiz
TTITLE6=Meanstreak
EXTD=
EXTT0=
EXTT1=
EXTT2=
EXTT3=
EXTT4=
EXTT5=
EXTT6=
PLAYORDER=
